<svg width="90" height="119" viewBox="0 0 90 119" fill="none" xmlns="http://www.w3.org/2000/svg">
<path d="M19.3618 79.0101H68.5802L62.6541 101.719H25.5141L19.3618 79.0101Z" fill="black"/>
<rect x="26.5225" y="82.0394" width="2.27268" height="19.157" rx="1.13634" transform="rotate(-8.3506 26.5225 82.0394)" fill="white"/>
<rect width="2.22607" height="18.2256" rx="1.11304" transform="matrix(-0.989398 -0.14523 -0.14523 0.989398 61.5908 82.8399)" fill="white"/>
<rect width="1.99045" height="17.2807" rx="0.995223" transform="matrix(-1 -8.74228e-08 -8.74228e-08 1 44.7847 82.9005)" fill="white"/>
<rect width="2.15577" height="17.1743" rx="1.07788" transform="matrix(-0.997076 -0.0764121 -0.0764121 0.997076 53.1997 83.0145)" fill="white"/>
<rect x="34.0093" y="82.9973" width="2.18802" height="17.4312" rx="1.09401" transform="rotate(-4.38236 34.0093 82.9973)" fill="white"/>
<path d="M70.4272 73.2917C70.4272 75.9828 69.7615 77.5769 68.7859 78.589C67.7831 79.6293 66.233 80.2868 63.9905 80.634C61.7496 80.981 59.0192 80.9897 55.8385 80.9C54.9088 80.8737 53.9405 80.8391 52.9409 80.8033C50.5709 80.7185 48.0252 80.6274 45.4012 80.6274C43.7626 80.6274 42.1436 80.6432 40.5582 80.6587C34.8474 80.7146 29.5744 80.7662 25.4028 80.0577C22.7555 79.608 20.7732 78.881 19.4717 77.8165C18.2486 76.8161 17.5137 75.428 17.5137 73.2917C17.5137 67.3579 21.395 61.8953 26.8048 57.8301C32.2091 53.769 38.7881 51.3771 43.5633 51.3771C47.706 51.3771 54.5146 53.2762 60.2792 57.0719C66.0304 60.8589 70.4272 66.3102 70.4272 73.2917Z" fill="white" stroke="black" stroke-width="3"/>
<path d="M33.34 73.032C33.34 77.0794 30.059 80.3605 26.0116 80.3605C21.9642 80.3605 18.6831 77.0794 18.6831 73.032C18.6831 68.9846 20.8332 64.4369 24.8806 64.4369C28.928 64.4369 33.34 68.9846 33.34 73.032Z" fill="white"/>
<path d="M40.9851 73.4006C40.9851 77.448 37.704 80.7291 33.6566 80.7291C29.6092 80.7291 26.3281 77.448 26.3281 73.4006C26.3281 69.3532 28.4783 64.8055 32.5257 64.8055C36.5731 64.8055 40.9851 69.3532 40.9851 73.4006Z" fill="white"/>
<path d="M49.1276 73.4006C49.1276 77.448 45.8466 80.7291 41.7992 80.7291C37.7518 80.7291 34.4707 77.448 34.4707 73.4006C34.4707 69.3532 36.6208 64.8055 40.6682 64.8055C44.7156 64.8055 49.1276 69.3532 49.1276 73.4006Z" fill="white"/>
<path d="M57.0896 73.4006C57.0896 77.448 53.8085 80.7291 49.7611 80.7291C45.7137 80.7291 42.4326 77.448 42.4326 73.4006C42.4326 69.3532 44.5827 64.8055 48.6302 64.8055C52.6776 64.8055 57.0896 69.3532 57.0896 73.4006Z" fill="white"/>
<path d="M63.2414 73.4006C63.2414 77.448 59.9603 80.7291 55.9129 80.7291C51.8655 80.7291 48.5845 77.448 48.5845 73.4006C48.5845 69.3532 50.7346 64.8055 54.782 64.8055C58.8294 64.8055 63.2414 69.3532 63.2414 73.4006Z" fill="white"/>
<path d="M54.4654 73.0387C54.4654 77.0861 57.7465 80.3672 61.7939 80.3672C65.8413 80.3672 69.0771 78.1718 69.0771 74.1244C69.0771 70.077 66.9723 64.4436 62.9249 64.4436C58.8775 64.4436 54.4654 68.9913 54.4654 73.0387Z" fill="white"/>
<circle cx="33.1134" cy="61.8198" r="1.62855" fill="black"/>
<circle cx="33.1134" cy="61.8198" r="1.62855" fill="black"/>
<circle cx="33.1134" cy="61.8198" r="1.62855" fill="black"/>
<circle cx="24.6994" cy="67.7912" r="1.62855" fill="black"/>
<circle cx="24.6994" cy="67.7912" r="1.62855" fill="black"/>
<circle cx="24.6994" cy="67.7912" r="1.62855" fill="black"/>
<circle cx="34.4708" cy="72.6768" r="1.62855" fill="black"/>
<circle cx="34.4708" cy="72.6768" r="1.62855" fill="black"/>
<circle cx="34.4708" cy="72.6768" r="1.62855" fill="black"/>
<circle cx="40.985" cy="57.658" r="1.62855" fill="black"/>
<circle cx="40.985" cy="57.658" r="1.62855" fill="black"/>
<circle cx="40.985" cy="57.658" r="1.62855" fill="black"/>
<circle cx="45.8707" cy="67.7007" r="1.62855" fill="black"/>
<circle cx="45.8707" cy="67.7007" r="1.62855" fill="black"/>
<circle cx="45.8707" cy="67.7007" r="1.62855" fill="black"/>
<circle cx="68.5802" cy="51.5057" r="1.62855" fill="black"/>
<circle cx="68.5802" cy="51.5057" r="1.62855" fill="black"/>
<circle cx="68.5802" cy="51.5057" r="1.62855" fill="black"/>
<circle cx="20.3571" cy="51.5057" r="1.62855" fill="black"/>
<circle cx="20.3571" cy="51.5057" r="1.62855" fill="black"/>
<circle cx="20.3571" cy="51.5057" r="1.62855" fill="black"/>
<circle cx="51.8419" cy="59.9199" r="1.62855" fill="black"/>
<circle cx="51.8419" cy="59.9199" r="1.62855" fill="black"/>
<circle cx="51.8419" cy="59.9199" r="1.62855" fill="black"/>
<circle cx="56.7277" cy="74.3054" r="1.62855" fill="black"/>
<circle cx="56.7277" cy="74.3054" r="1.62855" fill="black"/>
<circle cx="56.7277" cy="74.3054" r="1.62855" fill="black"/>
<circle cx="60.8893" cy="66.0722" r="1.62855" fill="black"/>
<circle cx="60.8893" cy="66.0722" r="1.62855" fill="black"/>
<circle cx="60.8893" cy="66.0722" r="1.62855" fill="black"/>
<rect x="28.5713" y="43.3788" width="2.00059" height="10.9366" transform="rotate(-23.8011 28.5713 43.3788)" fill="black"/>
<path d="M16.6582 15.5435L17.848 15.0187L19.6223 19.7025L18.8597 20.0389L16.6582 15.5435Z" fill="black"/>
<path d="M33.6929 41.7483C32.8898 43.7078 31.3085 44.9151 30.1608 44.4447C29.0131 43.9744 28.7338 42.0046 29.5368 40.045C30.3399 38.0855 33.0179 36.3693 33.5852 36.6019C34.1526 36.8344 34.4959 39.7887 33.6929 41.7483Z" fill="black"/>
<path d="M31.2979 36.318C30.4948 38.2775 28.9134 39.4848 27.7658 39.0144C26.6181 38.5441 26.3388 36.5743 27.1418 34.6148C27.9449 32.6552 30.6229 30.939 31.1902 31.1716C31.7576 31.4041 32.1009 34.3584 31.2979 36.318Z" fill="black"/>
<path d="M28.4717 29.9114C27.6686 31.871 26.0873 33.0782 24.9396 32.6079C23.7919 32.1375 23.5126 30.1677 24.3156 28.2082C25.1187 26.2486 27.7967 24.5325 28.3641 24.765C28.9314 24.9975 29.2747 27.9519 28.4717 29.9114Z" fill="black"/>
<path d="M25.2513 45.4733C27.2364 46.2109 29.1959 45.8663 29.6279 44.7037C30.0599 43.541 28.8008 42.0006 26.8157 41.263C24.8306 40.5254 21.7537 41.3314 21.5402 41.9061C21.3266 42.4809 23.2662 44.7357 25.2513 45.4733Z" fill="black"/>
<path d="M22.3675 40.2582C24.3527 40.9958 26.3121 40.6512 26.7441 39.4886C27.1761 38.3259 25.917 36.7855 23.9319 36.0479C21.9468 35.3103 18.8699 36.1163 18.6564 36.6911C18.4428 37.2658 20.3824 39.5206 22.3675 40.2582Z" fill="black"/>
<path d="M19.5419 33.8517C21.527 34.5893 23.4864 34.2447 23.9184 33.0821C24.3504 31.9195 23.0914 30.379 21.1063 29.6414C19.1211 28.9038 16.0442 29.7098 15.8307 30.2846C15.6171 30.8593 17.5567 33.1141 19.5419 33.8517Z" fill="black"/>
<path d="M14.5987 26.7177C15.3072 26.9809 16.0065 26.8579 16.1607 26.443C16.3148 26.0281 15.8655 25.4783 15.1571 25.2151C14.4486 24.9519 13.3505 25.2395 13.2743 25.4446C13.1981 25.6497 13.8903 26.4544 14.5987 26.7177Z" fill="black"/>
<path d="M16.0568 35.4766C16.7652 35.7399 17.4645 35.6169 17.6187 35.202C17.7728 34.7871 17.3235 34.2373 16.6151 33.9741C15.9066 33.7108 14.8085 33.9985 14.7323 34.2036C14.6561 34.4087 15.3483 35.2134 16.0568 35.4766Z" fill="black"/>
<path d="M18.4932 26.3959C19.3479 28.3335 22.2658 28.5288 22.9891 28.2974C23.7124 28.0661 25.1138 25.7903 24.2591 23.8527C23.4045 21.9151 19.9192 20.3005 19.3582 20.5479C18.7972 20.7954 17.6386 24.4582 18.4932 26.3959Z" fill="black"/>
<rect x="43.1646" y="36.9946" width="2.44457" height="13.3637" fill="black"/>
<path d="M43.5718 0L45.1608 0L44.8348 6.11143H43.8162L43.5718 0Z" fill="black"/>
<path d="M49.6947 37.6972C47.8306 39.492 45.4673 40.0619 44.4161 38.9701C43.365 37.8784 44.024 35.5384 45.8881 33.7436C47.7522 31.9488 51.5925 31.3507 52.1122 31.8904C52.6318 32.4302 51.5588 35.9024 49.6947 37.6972Z" fill="black"/>
<path d="M49.6947 30.445C47.8306 32.2398 45.4673 32.8097 44.4161 31.7179C43.365 30.6262 44.024 28.2862 45.8881 26.4914C47.7522 24.6966 51.5925 24.0985 52.1122 24.6382C52.6318 25.178 51.5588 28.6502 49.6947 30.445Z" fill="black"/>
<path d="M49.6947 21.889C47.8306 23.6838 45.4673 24.2537 44.4161 23.162C43.365 22.0702 44.024 19.7302 45.8881 17.9354C47.7522 16.1406 51.5925 15.5425 52.1122 16.0823C52.6318 16.622 51.5588 20.0943 49.6947 21.889Z" fill="black"/>
<path d="M38.4197 37.6988C40.2753 39.5023 42.6359 40.0834 43.6922 38.9966C44.7485 37.9098 44.1005 35.5667 42.2448 33.7631C40.3892 31.9596 36.5518 31.3434 36.0296 31.8807C35.5074 32.4179 36.564 35.8952 38.4197 37.6988Z" fill="black"/>
<path d="M37.7678 30.4466C39.6234 32.2501 41.984 32.8312 43.0403 31.7444C44.0966 30.6576 43.4486 28.3145 41.593 26.5109C39.7374 24.7074 35.8999 24.0912 35.3777 24.6285C34.8555 25.1657 35.9122 28.643 37.7678 30.4466Z" fill="black"/>
<path d="M37.7678 21.8905C39.6234 23.6941 41.984 24.2751 43.0403 23.1883C44.0966 22.1015 43.4486 19.7584 41.593 17.9549C39.7374 16.1513 35.8999 15.5352 35.3777 16.0724C34.8555 16.6097 35.9122 20.087 37.7678 21.8905Z" fill="black"/>
<path d="M35.7592 11.477C36.4215 12.1207 37.2639 12.3281 37.6409 11.9402C38.0178 11.5523 37.7866 10.7161 37.1243 10.0725C36.4621 9.42882 35.0926 9.20891 34.9062 9.40065C34.7199 9.5924 35.097 10.8334 35.7592 11.477Z" fill="black"/>
<path d="M52.524 10.8918C51.8618 11.5355 51.0193 11.7428 50.6423 11.355C50.2654 10.9671 50.4966 10.1309 51.1589 9.48726C51.8211 8.84361 53.1906 8.6237 53.377 8.81545C53.5633 9.00719 53.1862 10.2482 52.524 10.8918Z" fill="black"/>
<path d="M40.2718 13.0378C40.2718 15.6255 43.4376 17.2827 44.3604 17.3807C45.2831 17.4787 47.9722 15.6255 47.9722 13.0378C47.9722 10.4501 44.8718 6.92633 44.1226 6.92633C43.3734 6.92633 40.2718 10.4501 40.2718 13.0378Z" fill="black"/>
<rect width="2.00059" height="10.9366" transform="matrix(-0.914952 -0.403563 -0.403563 0.914952 61.5674 44.1647)" fill="black"/>
<path d="M73.4805 16.3293L72.2907 15.8046L70.5163 20.4883L71.279 20.8247L73.4805 16.3293Z" fill="black"/>
<path d="M56.4458 42.5341C57.2488 44.4937 58.8302 45.7009 59.9779 45.2306C61.1255 44.7603 61.4049 42.7905 60.6018 40.8309C59.7988 38.8714 57.1208 37.1552 56.5534 37.3877C55.9861 37.6203 55.6427 40.5746 56.4458 42.5341Z" fill="black"/>
<path d="M58.8408 37.1038C59.6439 39.0634 61.2252 40.2706 62.3729 39.8003C63.5206 39.33 63.7999 37.3602 62.9969 35.4006C62.1938 33.4411 59.5158 31.7249 58.9484 31.9574C58.3811 32.19 58.0378 35.1443 58.8408 37.1038Z" fill="black"/>
<path d="M61.6665 30.6973C62.4696 32.6568 64.0509 33.8641 65.1986 33.3938C66.3462 32.9234 66.6256 30.9536 65.8225 28.9941C65.0195 27.0345 62.3415 25.3184 61.7741 25.5509C61.2068 25.7834 60.8634 28.7377 61.6665 30.6973Z" fill="black"/>
<path d="M64.8878 46.2591C62.9027 46.9967 60.9433 46.6521 60.5113 45.4895C60.0793 44.3269 61.3383 42.7864 63.3234 42.0488C65.3085 41.3112 68.3854 42.1172 68.599 42.692C68.8126 43.2667 66.8729 45.5215 64.8878 46.2591Z" fill="black"/>
<path d="M67.7711 41.0441C65.786 41.7817 63.8266 41.4371 63.3946 40.2745C62.9626 39.1118 64.2216 37.5714 66.2067 36.8338C68.1918 36.0962 71.2687 36.9022 71.4823 37.4769C71.6959 38.0517 69.7562 40.3065 67.7711 41.0441Z" fill="black"/>
<path d="M70.5968 34.6375C68.6117 35.3751 66.6523 35.0305 66.2203 33.8679C65.7883 32.7053 67.0473 31.1648 69.0324 30.4272C71.0175 29.6896 74.0944 30.4956 74.308 31.0704C74.5215 31.6452 72.5819 33.8999 70.5968 34.6375Z" fill="black"/>
<path d="M75.5404 27.5035C74.832 27.7667 74.1327 27.6438 73.9785 27.2288C73.8243 26.8139 74.2737 26.2642 74.9821 26.0009C75.6906 25.7377 76.7887 26.0253 76.8649 26.2305C76.9411 26.4356 76.2489 27.2403 75.5404 27.5035Z" fill="black"/>
<path d="M74.0819 36.2625C73.3735 36.5257 72.6742 36.4027 72.52 35.9878C72.3658 35.5729 72.8152 35.0231 73.5236 34.7599C74.2321 34.4967 75.3302 34.7843 75.4064 34.9894C75.4826 35.1945 74.7904 35.9992 74.0819 36.2625Z" fill="black"/>
<path d="M71.6454 27.1817C70.7908 29.1193 67.8729 29.3146 67.1496 29.0833C66.4263 28.8519 65.0249 26.5761 65.8795 24.6385C66.7342 22.7009 70.2194 21.0863 70.7804 21.3338C71.3414 21.5812 72.5001 25.2441 71.6454 27.1817Z" fill="black"/>
<rect y="92.129" width="11.2189" height="2.08092" rx="1.04046" fill="black"/>
<rect x="11.8525" y="92.129" width="6.06182" height="2.08092" rx="1.04046" fill="black"/>
<rect width="11.2189" height="2.08092" rx="1.04046" transform="matrix(-1 0 0 1 89.8413 92.129)" fill="black"/>
<rect width="6.06182" height="2.08092" rx="1.04046" transform="matrix(-1 0 0 1 77.9893 92.129)" fill="black"/>
<path d="M8.14895 103.474L9.07101 103.265L11.6687 103.865C12.5023 104.058 13.1419 104.32 13.5874 104.65C14.0383 104.982 14.3197 105.361 14.4316 105.788C14.5506 106.211 14.53 106.662 14.3699 107.14C14.1221 107.879 13.6371 108.401 12.915 108.705C12.2 109.006 11.3871 109.097 10.4765 108.979L10.7751 108.918C11.9027 109.271 12.7018 109.791 13.1722 110.48C13.6443 111.163 13.7539 111.882 13.5011 112.637C13.314 113.195 12.9896 113.67 12.528 114.062C12.0734 114.45 11.4556 114.703 10.6745 114.82C9.90041 114.934 8.93792 114.858 7.78698 114.592L5.4636 114.055L5.0223 113.53L7.77324 114.166C8.41863 114.315 9.00376 114.35 9.52865 114.271C10.0535 114.192 10.5046 113.987 10.8818 113.657C11.2643 113.328 11.5576 112.859 11.7615 112.251C11.9267 111.758 11.9703 111.299 11.8924 110.875C11.8161 110.445 11.6009 110.076 11.2468 109.767C10.8944 109.452 10.3848 109.218 9.71789 109.064L6.74106 108.375L6.65472 107.933L9.73642 108.645C10.4141 108.802 11.017 108.741 11.545 108.462C12.0748 108.178 12.467 107.656 12.7215 106.897C12.8698 106.454 12.8993 106.046 12.8098 105.673C12.7221 105.295 12.4961 104.967 12.1319 104.688C11.7731 104.41 11.2549 104.192 10.5772 104.036L8.14895 103.474ZM3.07568 113.502L3.149 113.284L4.69924 113.301L7.95823 103.576L6.61784 102.933L6.69116 102.714L9.79707 103.432L6.18159 114.22L3.07568 113.502Z" fill="black"/>
<path d="M19.832 112.624L19.9221 112.156L25.7366 112.915L25.6465 113.382L19.832 112.624ZM27.2732 117.452L28.4916 117.954L28.4481 118.18L23.8836 117.584L23.9272 117.358L25.4856 117.234L23.0736 107.88L23.2792 107.907L17.9298 116.193L19.4203 116.77L19.3768 116.996L16.0131 116.558L16.0567 116.332L17.3916 116.099L23.956 106.015L24.2685 106.055L27.2732 117.452Z" fill="black"/>
<path d="M43.3354 118.428L44.5382 118.77L44.5254 118.999L39.5232 118.832L39.5359 118.602L41.0546 118.344L36.0267 112.954L35.2303 112.927L35.2567 112.452L36.053 112.479L41.9043 108.135L40.3462 107.758L40.3589 107.528L44.1251 107.654L44.1124 107.884L42.6601 108.144L36.5429 112.638L37.3578 112.032L43.3354 118.428ZM36.0891 107.94L35.5227 118.135L36.9892 118.517L36.9764 118.746L32.2977 118.59L32.3105 118.36L33.8138 118.078L34.3802 107.883L32.9134 107.509L32.9261 107.279L37.6048 107.436L37.5921 107.665L36.0891 107.94Z" fill="black"/>
<path d="M55.3363 110.413L55.2084 112.744L55.6431 115.029L55.4608 115.039L54.4063 113.064L50.4237 113.083L50.4116 112.901L54.3669 112.471L55.1539 110.423L55.3363 110.413ZM57.9072 110.302L57.7042 110.376L55.8459 107.57L57.1266 107.693L50.0403 108.066L50.0088 107.592L55.9762 107.278L57.0502 106.793L57.1165 106.79L57.9072 110.302ZM56.7092 118.305L58.4972 115.3L58.7081 115.344L58.0655 118.939L57.9992 118.943L56.9099 118.572L50.7601 118.895L50.7286 118.421L57.9724 118.04L56.7092 118.305ZM48.771 119L48.7558 118.771L50.2173 118.361L49.54 108.172L48.0349 107.926L48.0196 107.697L51.2106 107.529L51.9619 118.832L48.771 119Z" fill="black"/>
<path d="M65.0683 111.757C65.9011 111.645 66.5154 111.351 66.911 110.876C67.3112 110.396 67.4377 109.755 67.2905 108.954C67.2025 108.476 67.0229 108.079 66.7516 107.764C66.4793 107.443 66.0904 107.222 65.5848 107.098C65.0792 106.975 64.4319 106.966 63.6429 107.073L61.4732 107.366L61.3987 106.961L64.1354 106.591C65.2312 106.442 66.1184 106.442 66.797 106.59C67.4811 106.738 67.9974 106.996 68.3459 107.364C68.6944 107.733 68.9169 108.18 69.0135 108.705C69.0976 109.163 69.0418 109.607 68.846 110.039C68.6502 110.47 68.3099 110.85 67.8253 111.176C67.3407 111.503 66.7077 111.741 65.9264 111.889L65.9221 111.866C66.4271 111.803 66.8481 111.802 67.185 111.863C67.5219 111.924 67.8182 112.054 68.074 112.254C68.3342 112.448 68.5984 112.724 68.8664 113.082L70.6156 115.404C70.9269 115.815 71.1835 116.111 71.3851 116.292C71.5922 116.471 71.7965 116.574 71.9978 116.6C72.2046 116.626 72.4614 116.618 72.7682 116.576L72.8184 116.849C72.2563 116.968 71.7857 117.05 71.4067 117.096C71.0331 117.141 70.715 117.136 70.4522 117.081C70.1894 117.026 69.9521 116.912 69.7405 116.738C69.5288 116.564 69.3047 116.322 69.0682 116.013L67.0833 113.372C66.8144 113.008 66.5818 112.736 66.3856 112.554C66.1885 112.368 65.9979 112.247 65.8137 112.192C65.6295 112.137 65.4141 112.126 65.1675 112.16L62.4226 112.531L62.348 112.125L65.0683 111.757ZM62.6972 106.785L64.6461 117.387L66.1774 117.516L66.219 117.742L61.5837 118.369L61.5422 118.143L62.953 117.616L61.1045 107.56L59.5746 107.439L59.533 107.213L62.6972 106.785Z" fill="black"/>
<path d="M73.4409 105.824L72.0784 105.787L72.0087 105.567L76.585 104.518L76.6548 104.738L75.2522 105.393L80.5884 109.659L80.2817 109.729L81.8954 103.927L80.2464 103.915L80.1767 103.695L83.4455 102.946L83.5153 103.166L82.403 103.835L80.6687 109.884L82.0733 114.311L83.6191 114.299L83.6889 114.518L79.1367 115.562L79.067 115.342L80.4107 114.692L79.0012 110.25L73.4409 105.824Z" fill="black"/>
</svg>
