<svg width="110" height="145" viewBox="0 0 110 145" fill="none" xmlns="http://www.w3.org/2000/svg">
<path d="M32.3846 122.444L25.6685 97.7728H82.0234L75.5543 122.444H32.3846Z" fill="#843B00" stroke="#843B00" stroke-width="3"/>
<rect width="2.78234" height="23.345" rx="1.39117" transform="matrix(0.989498 -0.144546 0.145917 0.989297 32.4731 99.9641)" fill="white"/>
<rect width="2.72528" height="22.2099" rx="1.36264" transform="matrix(-0.989498 -0.144546 -0.145917 0.989297 75.4106 100.939)" fill="white"/>
<rect width="2.43706" height="21.0563" rx="1.21853" transform="matrix(-1 -8.70022e-08 -8.78454e-08 1 54.8335 101.013)" fill="white"/>
<rect width="2.6394" height="20.9273" rx="1.3197" transform="matrix(-0.997104 -0.0760467 -0.0767794 0.997048 65.1367 101.152)" fill="white"/>
<rect width="2.67888" height="21.2403" rx="1.33944" transform="matrix(0.997104 -0.0760467 0.0767794 0.997048 41.6401 101.131)" fill="white"/>
<path d="M86.5662 89.305C86.5662 92.6362 85.7373 94.6708 84.465 95.9845C83.1643 97.3275 81.1813 98.1469 78.4013 98.5752C75.6235 99.0032 72.2524 99.0125 68.3579 98.9032C67.2146 98.8711 66.026 98.8288 64.8005 98.7851C61.9013 98.6818 58.7947 98.5712 55.5884 98.5712C53.5939 98.5712 51.6195 98.5905 49.6832 98.6094C42.6852 98.6777 36.1862 98.7411 31.0453 97.8722C27.7806 97.3204 25.2851 96.4211 23.6251 95.0699C22.0442 93.7831 21.1069 91.9961 21.1069 89.305C21.1069 81.9314 25.9488 75.1901 32.6144 70.2053C39.2733 65.2255 47.3987 62.2747 53.3381 62.2747C58.4874 62.2747 66.8881 64.614 73.9925 69.2695C81.0849 73.9171 86.5662 80.6474 86.5662 89.305Z" fill="white" stroke="#843B00" stroke-width="3"/>
<path d="M40.8201 88.9886C40.8201 93.9203 36.8029 97.9183 31.8473 97.9183C26.8918 97.9183 22.8745 93.9203 22.8745 88.9886C22.8745 84.0569 25.5071 78.5156 30.4626 78.5156C35.4182 78.5156 40.8201 84.0569 40.8201 88.9886Z" fill="white"/>
<path d="M50.1805 89.4377C50.1805 94.3694 46.1632 98.3674 41.2077 98.3674C36.2521 98.3674 32.2349 94.3694 32.2349 89.4377C32.2349 84.506 34.8674 78.9647 39.823 78.9647C44.7785 78.9647 50.1805 84.506 50.1805 89.4377Z" fill="white"/>
<path d="M60.1507 89.4377C60.1507 94.3694 56.1334 98.3674 51.1779 98.3674C46.2223 98.3674 42.2051 94.3694 42.2051 89.4377C42.2051 84.506 44.8377 78.9647 49.7932 78.9647C54.7488 78.9647 60.1507 84.506 60.1507 89.4377Z" fill="white"/>
<path d="M69.8988 89.4377C69.8988 94.3694 65.8815 98.3674 60.9259 98.3674C55.9704 98.3674 51.9531 94.3694 51.9531 89.4377C51.9531 84.506 54.5857 78.9647 59.5412 78.9647C64.4968 78.9647 69.8988 84.506 69.8988 89.4377Z" fill="white"/>
<path d="M77.4315 89.4377C77.4315 94.3694 73.4142 98.3674 68.4587 98.3674C63.5031 98.3674 59.4858 94.3694 59.4858 89.4377C59.4858 84.506 62.1184 78.9647 67.074 78.9647C72.0295 78.9647 77.4315 84.506 77.4315 89.4377Z" fill="white"/>
<path d="M66.6864 88.9968C66.6864 93.9285 70.7037 97.9264 75.6592 97.9264C80.6148 97.9264 84.5767 95.2514 84.5767 90.3197C84.5767 85.388 81.9995 78.5237 77.0439 78.5237C72.0884 78.5237 66.6864 84.0651 66.6864 88.9968Z" fill="white"/>
<ellipse cx="40.5433" cy="75.3267" rx="1.99396" ry="1.98437" fill="#E67F25"/>
<ellipse cx="30.2415" cy="82.6028" rx="1.99396" ry="1.98437" fill="#E67F25"/>
<ellipse cx="42.2049" cy="88.5558" rx="1.99396" ry="1.98437" fill="#E67F25"/>
<ellipse cx="50.181" cy="70.2555" rx="1.99396" ry="1.98437" fill="#E67F25"/>
<ellipse cx="56.1629" cy="82.4925" rx="1.99396" ry="1.98437" fill="#E67F25"/>
<ellipse cx="83.9676" cy="62.759" rx="1.99396" ry="1.98437" fill="#843B00"/>
<ellipse cx="24.9241" cy="62.759" rx="1.99396" ry="1.98437" fill="#843B00"/>
<ellipse cx="63.4739" cy="73.0117" rx="1.99396" ry="1.98437" fill="#E67F25"/>
<ellipse cx="69.4564" cy="90.5403" rx="1.99396" ry="1.98437" fill="#E67F25"/>
<ellipse cx="74.5516" cy="80.5081" rx="1.99396" ry="1.98437" fill="#E67F25"/>
<rect width="2.44756" height="13.0577" transform="matrix(0.915668 -0.401936 0.405194 0.914231 34.6689 52.1508)" fill="#FABE73"/>
<path d="M20.3955 18.9395L21.8523 18.3001L23.9731 23.8906L23.0393 24.3005L20.3955 18.9395Z" fill="#FABE73"/>
<path d="M40.9333 50.1506C39.9349 52.5041 37.9939 53.9642 36.5979 53.4119C35.202 52.8597 34.8797 50.5041 35.8782 48.1507C36.8766 45.7972 40.1605 43.7175 40.8506 43.9905C41.5407 44.2636 41.9317 47.7972 40.9333 50.1506Z" fill="#FABE73"/>
<path d="M38.0627 43.6722C37.0643 46.0257 35.1233 47.4858 33.7273 46.9336C32.3314 46.3813 32.0091 44.0257 33.0075 41.6723C34.006 39.3188 37.2899 37.2391 37.98 37.5122C38.6701 37.7852 39.0611 41.3188 38.0627 43.6722Z" fill="#FABE73"/>
<path d="M34.6745 36.0291C33.6761 38.3825 31.7351 39.8427 30.3392 39.2904C28.9432 38.7382 28.621 36.3826 29.6194 34.0292C30.6178 31.6757 33.9017 29.596 34.5918 29.869C35.2819 30.142 35.6729 33.6756 34.6745 36.0291Z" fill="#FABE73"/>
<path d="M30.5975 54.6895C33.0128 55.5538 35.407 55.1229 35.9451 53.727C36.4832 52.3311 34.9615 50.4987 32.5462 49.6344C30.1309 48.77 26.3689 49.7639 26.1028 50.454C25.8368 51.1441 28.1823 53.8251 30.5975 54.6895Z" fill="#FABE73"/>
<path d="M27.1283 48.4733C29.5436 49.3376 31.9378 48.9067 32.4759 47.5108C33.014 46.1149 31.4923 44.2826 29.077 43.4182C26.6617 42.5538 22.8996 43.5477 22.6336 44.2378C22.3676 44.9279 24.713 47.6089 27.1283 48.4733Z" fill="#FABE73"/>
<path d="M23.7411 40.8302C26.1564 41.6946 28.5506 41.2636 29.0887 39.8677C29.6268 38.4718 28.1051 36.6395 25.6898 35.7751C23.2745 34.9108 19.5124 35.9046 19.2464 36.5947C18.9804 37.2848 21.3258 39.9659 23.7411 40.8302Z" fill="#FABE73"/>
<path d="M17.777 32.3362C18.639 32.6447 19.4934 32.4909 19.6855 31.9927C19.8775 31.4945 19.3344 30.8406 18.4725 30.5321C17.6105 30.2237 16.2679 30.5783 16.1729 30.8246C16.078 31.0709 16.915 32.0277 17.777 32.3362Z" fill="#FABE73"/>
<path d="M19.4728 42.8084C20.3348 43.1168 21.1892 42.9631 21.3813 42.4649C21.5733 41.9667 21.0302 41.3128 20.1683 41.0043C19.3063 40.6958 17.9637 41.0505 17.8687 41.2968C17.7738 41.5431 18.6108 42.4999 19.4728 42.8084Z" fill="#FABE73"/>
<path d="M22.5319 31.9143C23.5564 34.2259 27.115 34.4323 27.9997 34.1485C28.8845 33.8647 30.616 31.127 29.5915 28.8154C28.567 26.5038 24.3295 24.6037 23.6426 24.9053C22.9557 25.2068 21.5073 29.6027 22.5319 31.9143Z" fill="#FABE73"/>
<rect x="52.8491" y="44.7567" width="2.99308" height="16.1676" fill="#FABE73"/>
<path d="M53.3477 0L55.2932 0L54.8941 7.39373H53.647L53.3477 0Z" fill="#FABE73"/>
<path d="M60.8443 45.6068C58.562 47.7781 55.6684 48.4676 54.3814 47.1468C53.0944 45.8259 53.9013 42.9949 56.1836 40.8236C58.466 38.6522 63.168 37.9287 63.8043 38.5816C64.4405 39.2346 63.1267 43.4354 60.8443 45.6068Z" fill="#FABE73"/>
<path d="M60.8443 36.833C58.562 39.0043 55.6684 39.6938 54.3814 38.373C53.0944 37.0521 53.9013 34.2211 56.1836 32.0498C58.466 29.8784 63.168 29.1549 63.8043 29.8078C64.4405 30.4608 63.1267 34.6616 60.8443 36.833Z" fill="#FABE73"/>
<path d="M60.8443 26.4818C58.562 28.6531 55.6684 29.3426 54.3814 28.0218C53.0944 26.7009 53.9013 23.8699 56.1836 21.6986C58.466 19.5272 63.168 18.8037 63.8043 19.4566C64.4405 20.1096 63.1267 24.3104 60.8443 26.4818Z" fill="#FABE73"/>
<path d="M47.0394 45.6087C49.3114 47.7906 52.2017 48.4936 53.495 47.1788C54.7883 45.8639 53.9949 43.0292 51.7229 40.8472C49.4509 38.6653 44.7524 37.9198 44.1131 38.5698C43.4737 39.2198 44.7674 43.4267 47.0394 45.6087Z" fill="#FABE73"/>
<path d="M46.2416 36.8349C48.5136 39.0168 51.4038 39.7198 52.6971 38.4049C53.9904 37.0901 53.197 34.2554 50.925 32.0734C48.653 29.8915 43.9546 29.146 43.3152 29.796C42.6758 30.446 43.9696 34.6529 46.2416 36.8349Z" fill="#FABE73"/>
<path d="M46.2416 26.4836C48.5136 28.6656 51.4038 29.3685 52.6971 28.0537C53.9904 26.7389 53.197 23.9041 50.925 21.7222C48.653 19.5402 43.9546 18.7947 43.3152 19.4447C42.6758 20.0948 43.9696 24.3016 46.2416 26.4836Z" fill="#FABE73"/>
<path d="M43.7822 13.8851C44.5931 14.6638 45.6245 14.9147 46.0861 14.4455C46.5476 13.9762 46.2645 12.9646 45.4537 12.1859C44.6428 11.4072 42.966 11.1411 42.7379 11.3731C42.5097 11.6051 42.9714 13.1064 43.7822 13.8851Z" fill="#FABE73"/>
<path d="M64.3086 13.1771C63.4978 13.9558 62.4663 14.2067 62.0047 13.7375C61.5432 13.2682 61.8263 12.2566 62.6372 11.4779C63.448 10.6992 65.1248 10.4331 65.353 10.6651C65.5811 10.8971 65.1194 12.3984 64.3086 13.1771Z" fill="#FABE73"/>
<path d="M49.3071 15.7734C49.3071 18.904 53.1834 20.909 54.3132 21.0276C55.443 21.1461 58.7354 18.904 58.7354 15.7734C58.7354 12.6427 54.9394 8.37964 54.022 8.37964C53.1047 8.37964 49.3071 12.6427 49.3071 15.7734Z" fill="#FABE73"/>
<rect width="2.44756" height="13.1429" transform="matrix(-0.915668 -0.401936 -0.405194 0.914231 75.5981 53.3239)" fill="#FABE73"/>
<path d="M89.9673 19.8971L88.5105 19.2576L86.374 24.8838L87.3078 25.2937L89.9673 19.8971Z" fill="#FABE73"/>
<path d="M69.3318 51.3279C70.3256 53.6918 72.2651 55.1552 73.6639 54.5966C75.0626 54.038 75.3909 51.6688 74.3972 49.3049C73.4034 46.941 70.121 44.8578 69.4295 45.134C68.738 45.4101 68.338 48.964 69.3318 51.3279Z" fill="#FABE73"/>
<path d="M72.222 44.8072C73.2157 47.1711 75.1553 48.6345 76.554 48.0759C77.9528 47.5173 78.2811 45.1481 77.2873 42.7842C76.2935 40.4203 73.0111 38.3371 72.3196 38.6133C71.6281 38.8894 71.2282 42.4433 72.222 44.8072Z" fill="#FABE73"/>
<path d="M75.6311 37.1143C76.6249 39.4782 78.5644 40.9417 79.9632 40.383C81.362 39.8244 81.6903 37.4552 80.6965 35.0913C79.7027 32.7274 76.4203 30.6443 75.7288 30.9204C75.0373 31.1966 74.6374 34.7504 75.6311 37.1143Z" fill="#FABE73"/>
<path d="M79.6681 55.8666C77.2481 56.7415 74.8524 56.3139 74.3171 54.9117C73.7818 53.5094 75.3096 51.6635 77.7295 50.7886C80.1495 49.9137 83.9131 50.904 84.1778 51.5972C84.4424 52.2904 82.088 54.9917 79.6681 55.8666Z" fill="#FABE73"/>
<path d="M83.1558 49.6082C80.7359 50.4831 78.3402 50.0556 77.8049 48.6533C77.2696 47.2511 78.7974 45.4051 81.2173 44.5302C83.6373 43.6554 87.4009 44.6456 87.6656 45.3389C87.9302 46.0321 85.5758 48.7334 83.1558 49.6082Z" fill="#FABE73"/>
<path d="M86.5655 41.9154C84.1456 42.7902 81.7499 42.3627 81.2146 40.9604C80.6793 39.5582 82.2071 37.7122 84.627 36.8374C87.0469 35.9625 90.8106 36.9528 91.0752 37.646C91.3399 38.3392 88.9855 41.0405 86.5655 41.9154Z" fill="#FABE73"/>
<path d="M92.5574 33.3598C91.694 33.6719 90.8393 33.5194 90.6483 33.0191C90.4573 32.5188 91.0024 31.8603 91.8658 31.5481C92.7291 31.236 94.0719 31.5893 94.1663 31.8366C94.2607 32.0839 93.4207 33.0477 92.5574 33.3598Z" fill="#FABE73"/>
<path d="M90.8332 43.8932C89.9699 44.2053 89.1152 44.0528 88.9242 43.5525C88.7332 43.0522 89.2783 42.3937 90.1416 42.0815C91.005 41.7694 92.3478 42.1227 92.4422 42.37C92.5366 42.6173 91.6966 43.5811 90.8332 43.8932Z" fill="#FABE73"/>
<path d="M87.7971 32.9478C86.7659 35.2745 83.203 35.4905 82.318 35.2073C81.433 34.9241 79.7063 32.1756 80.7374 29.849C81.7686 27.5223 86.0152 25.6017 86.7021 25.9032C87.389 26.2047 88.8283 30.6211 87.7971 32.9478Z" fill="#FABE73"/>
<rect y="112.258" width="13.7362" height="2.53558" rx="1.26779" fill="#843B00"/>
<rect x="14.5122" y="112.258" width="7.42196" height="2.53558" rx="1.26779" fill="#843B00"/>
<rect width="13.7362" height="2.53558" rx="1.26779" transform="matrix(-1 0 0 1 110 112.258)" fill="#843B00"/>
<rect width="7.42196" height="2.53558" rx="1.26779" transform="matrix(-1 0 0 1 95.4883 112.258)" fill="#843B00"/>
<path d="M9.97722 126.082L11.1062 125.827L14.2867 126.558C15.3074 126.793 16.0904 127.112 16.6359 127.515C17.188 127.919 17.5325 128.381 17.6695 128.902C17.8152 129.417 17.79 129.966 17.594 130.548C17.2906 131.449 16.6968 132.085 15.8127 132.456C14.9372 132.822 13.942 132.934 12.827 132.789L13.1926 132.715C14.5733 133.145 15.5516 133.779 16.1275 134.618C16.7056 135.451 16.8398 136.327 16.5302 137.247C16.3011 137.927 15.904 138.506 15.3388 138.983C14.7822 139.456 14.0258 139.764 13.0694 139.907C12.1217 140.046 10.9432 139.953 9.53404 139.628L6.68934 138.974L6.14902 138.335L9.51722 139.11C10.3074 139.291 11.0238 139.334 11.6665 139.238C12.3092 139.141 12.8614 138.892 13.3232 138.49C13.7916 138.089 14.1507 137.518 14.4004 136.776C14.6026 136.176 14.656 135.617 14.5606 135.1C14.4672 134.576 14.2037 134.126 13.7702 133.749C13.3387 133.366 12.7147 133.08 11.8982 132.893L8.25344 132.054L8.14772 131.515L11.9209 132.383C12.7506 132.574 13.4887 132.499 14.1353 132.159C14.784 131.813 15.2641 131.178 15.5757 130.252C15.7573 129.713 15.7934 129.216 15.6839 128.762C15.5765 128.301 15.2998 127.901 14.8539 127.56C14.4145 127.222 13.78 126.957 12.9503 126.766L9.97722 126.082ZM3.76562 138.301L3.8554 138.035L5.75347 138.055L9.7437 126.207L8.10256 125.423L8.19234 125.156L11.9951 126.031L7.56843 139.176L3.76562 138.301Z" fill="#843B00"/>
<path d="M24.2817 137.231L24.392 136.661L31.5112 137.585L31.4009 138.155L24.2817 137.231ZM33.3926 143.113L34.8843 143.725L34.831 144.001L29.2424 143.275L29.2958 143L31.2038 142.849L28.2506 131.45L28.5024 131.483L21.9527 141.579L23.7777 142.283L23.7243 142.559L19.6059 142.024L19.6592 141.749L21.2937 141.465L29.331 129.178L29.7136 129.227L33.3926 143.113Z" fill="#843B00"/>
<path d="M53.0588 144.303L54.5314 144.719L54.5158 144.999L48.3912 144.795L48.4068 144.515L50.2661 144.201L44.1101 137.633L43.135 137.6L43.1673 137.022L44.1424 137.054L51.3066 131.761L49.3988 131.301L49.4144 131.022L54.0257 131.175L54.0101 131.455L52.2319 131.772L44.7421 137.248L45.7399 136.509L53.0588 144.303ZM44.1866 131.523L43.4931 143.946L45.2886 144.411L45.273 144.691L39.5445 144.5L39.5601 144.22L41.4008 143.876L42.0942 131.454L40.2982 130.998L40.3138 130.718L46.0423 130.909L46.0267 131.189L44.1866 131.523Z" fill="#843B00"/>
<path d="M67.7524 134.537L67.5958 137.377L68.1281 140.162L67.9048 140.174L66.6137 137.767L61.7375 137.79L61.7227 137.569L66.5655 137.044L67.5291 134.549L67.7524 134.537ZM70.9001 134.401L70.6516 134.492L68.3764 131.073L69.9444 131.223L61.2681 131.677L61.2295 131.099L68.5359 130.717L69.8508 130.126L69.932 130.122L70.9001 134.401ZM69.4333 144.153L71.6225 140.491L71.8807 140.545L71.0939 144.926L71.0127 144.93L69.6791 144.478L62.1494 144.872L62.1109 144.295L70.98 143.83L69.4333 144.153ZM59.714 145L59.6953 144.721L61.4848 144.221L60.6555 131.806L58.8127 131.506L58.794 131.227L62.7009 131.022L63.6209 144.795L59.714 145Z" fill="#843B00"/>
<path d="M79.6681 136.175C80.6877 136.037 81.4398 135.68 81.9242 135.101C82.4142 134.516 82.5691 133.735 82.3888 132.759C82.2811 132.176 82.0612 131.693 81.729 131.309C81.3957 130.918 80.9195 130.648 80.3004 130.498C79.6814 130.347 78.8888 130.337 77.9228 130.467L75.2663 130.825L75.175 130.33L78.5258 129.879C79.8675 129.699 80.9538 129.698 81.7846 129.879C82.6222 130.058 83.2543 130.373 83.681 130.822C84.1077 131.271 84.3802 131.816 84.4984 132.456C84.6014 133.013 84.5331 133.555 84.2933 134.081C84.0536 134.607 83.637 135.069 83.0437 135.467C82.4503 135.865 81.6753 136.155 80.7187 136.335L80.7134 136.307C81.3317 136.23 81.8472 136.229 82.2597 136.303C82.6722 136.378 83.035 136.537 83.3481 136.78C83.6668 137.017 83.9902 137.353 84.3183 137.789L86.46 140.619C86.8412 141.119 87.1553 141.48 87.4022 141.7C87.6558 141.919 87.9059 142.044 88.1524 142.076C88.4056 142.107 88.72 142.097 89.0957 142.047L89.1571 142.379C88.4688 142.524 87.8927 142.624 87.4286 142.68C86.9713 142.735 86.5817 142.729 86.2599 142.662C85.9382 142.595 85.6477 142.456 85.3885 142.244C85.1294 142.032 84.855 141.737 84.5654 141.361L82.1352 138.142C81.8059 137.699 81.5212 137.367 81.281 137.146C81.0396 136.919 80.8062 136.772 80.5806 136.705C80.3551 136.638 80.0914 136.624 79.7895 136.665L76.4286 137.117L76.3373 136.623L79.6681 136.175ZM76.7649 130.116L79.151 143.035L81.026 143.191L81.0769 143.467L75.4016 144.231L75.3507 143.955L77.0782 143.314L74.8149 131.061L72.9417 130.913L72.8908 130.638L76.7649 130.116Z" fill="#843B00"/>
<path d="M89.9193 128.945L88.2511 128.9L88.1657 128.632L93.7689 127.354L93.8543 127.622L92.1369 128.42L98.6705 133.618L98.295 133.703L100.271 126.634L98.2518 126.619L98.1664 126.351L102.169 125.438L102.254 125.706L100.892 126.522L98.7688 133.893L100.489 139.287L102.381 139.271L102.467 139.539L96.8931 140.81L96.8077 140.543L98.4529 139.751L96.7272 134.338L89.9193 128.945Z" fill="#843B00"/>
</svg>
